<?xml version="1.0" ?><!DOCTYPE svg  PUBLIC '-//W3C//DTD SVG 1.1//EN'  'http://www.w3.org/Graphics/SVG/1.1/DTD/svg11.dtd'><svg enable-background="new 0 0 24 24" height="24px" id="Layer_1" version="1.1" viewBox="0 0 24 24" width="24px" xml:space="preserve" xmlns="http://www.w3.org/2000/svg" xmlns:xlink="http://www.w3.org/1999/xlink"><g><g><g><path d="M22.5,20.9h-7.6c-0.3,0-0.5-0.2-0.5-0.5v-2.5c0-0.3,0.2-0.5,0.5-0.5H16v-7l-2.8,10.1c-0.1,0.2-0.3,0.4-0.5,0.4H9.9     c-0.2,0-0.4-0.2-0.5-0.4L6.6,10.4v7h1.1c0.3,0,0.5,0.2,0.5,0.5v2.5c0,0.3-0.2,0.5-0.5,0.5H1.4c-0.3,0-0.5-0.2-0.5-0.5v-2.5     c0-0.3,0.2-0.5,0.5-0.5h0.8c0.1,0,0.2-0.1,0.3-0.2l0-10.3c0-0.1-0.2-0.2-0.3-0.2l-0.8,0c-0.3,0-0.5-0.2-0.5-0.5V3.6     c0-0.3,0.2-0.5,0.5-0.5h7.9c0.2,0,0.4,0.2,0.5,0.4l2.2,8l2.2-8c0.1-0.2,0.3-0.4,0.5-0.4h7.9c0.3,0,0.5,0.2,0.5,0.5v2.5     c0,0.3-0.2,0.5-0.5,0.5h-0.8c-0.1,0-0.2,0.2-0.3,0.3l0,10.4c0,0,0.2,0.2,0.3,0.2l0.8,0c0.3,0,0.5,0.2,0.5,0.5v2.5     C23,20.6,22.8,20.9,22.5,20.9z M15.4,19.9H22v-1.5h-0.3c-0.5,0-1.2-0.6-1.2-1.2V6.8c0-0.6,0.7-1.2,1.2-1.2H22V4.1h-7l-2.5,9.3     c-0.1,0.2-0.3,0.4-0.5,0.4c-0.2,0-0.5-0.2-0.6-0.4L8.9,4.1h-7v1.5h0.3c0.6,0,1.3,0.7,1.3,1.2v10.4c0,0.6-0.7,1.2-1.3,1.2H1.9v1.5     h5.3v-1.5H6.1c-0.3,0-0.5-0.2-0.5-0.5V7c0-0.3,0.2-0.5,0.5-0.5c0.2,0,0.5,0.2,0.6,0.4l3.6,13h2.1l3.6-13c0.1-0.2,0.3-0.4,0.5-0.4     C16.7,6.5,17,6.7,17,7v10.9c0,0.3-0.2,0.5-0.5,0.5h-1.1V19.9z"/></g></g><g><g><path d="M4,20.9H1c-0.3,0-0.5-0.2-0.5-0.5s0.2-0.5,0.5-0.5h3c0.3,0,0.5,0.2,0.5,0.5S4.3,20.9,4,20.9z"/></g></g><g><g><path d="M23,20.9h-3c-0.3,0-0.5-0.2-0.5-0.5s0.2-0.5,0.5-0.5h3c0.3,0,0.5,0.2,0.5,0.5S23.3,20.9,23,20.9z"/></g></g></g></svg>